<mxfile host="app.diagrams.net" modified="2021-10-08T04:17:52.733Z" agent="5.0 (Windows NT 10.0; Win64; x64) AppleWebKit/537.36 (KHTML, like Gecko) Chrome/92.0.4515.159 Safari/537.36" etag="t7csNGfU5aya5272dIsp" version="15.4.3" type="github">
  <diagram id="_tMo0X6HMqpLmebG8TdS" name="第 1 页">
    <mxGraphModel dx="1248" dy="686" grid="1" gridSize="10" guides="1" tooltips="1" connect="1" arrows="1" fold="1" page="1" pageScale="1" pageWidth="827" pageHeight="1169" math="0" shadow="0">
      <root>
        <mxCell id="0" />
        <mxCell id="1" parent="0" />
        <mxCell id="cECSEEEWD8I-1CxaCeh5-1" value="&lt;b&gt;&lt;font style=&quot;font-size: 15px&quot;&gt;第一轮投票&lt;br&gt;（2,0）选票胜&lt;br&gt;&lt;/font&gt;&lt;/b&gt;" style="rounded=0;whiteSpace=wrap;html=1;strokeWidth=2;fillColor=#FF99CC;verticalAlign=top;" parent="1" vertex="1">
          <mxGeometry x="259" y="130" width="310" height="240" as="geometry" />
        </mxCell>
        <mxCell id="cECSEEEWD8I-1CxaCeh5-6" style="edgeStyle=orthogonalEdgeStyle;rounded=0;orthogonalLoop=1;jettySize=auto;html=1;exitX=0.5;exitY=0;exitDx=0;exitDy=0;entryX=0.5;entryY=0;entryDx=0;entryDy=0;curved=1;strokeWidth=1;" parent="1" source="cECSEEEWD8I-1CxaCeh5-3" target="cECSEEEWD8I-1CxaCeh5-4" edge="1">
          <mxGeometry relative="1" as="geometry">
            <Array as="points">
              <mxPoint x="323" y="200" />
              <mxPoint x="493" y="200" />
            </Array>
          </mxGeometry>
        </mxCell>
        <mxCell id="cECSEEEWD8I-1CxaCeh5-8" value="（1,0）" style="edgeLabel;html=1;align=center;verticalAlign=middle;resizable=0;points=[];" parent="cECSEEEWD8I-1CxaCeh5-6" vertex="1" connectable="0">
          <mxGeometry x="-0.141" y="-1" relative="1" as="geometry">
            <mxPoint as="offset" />
          </mxGeometry>
        </mxCell>
        <mxCell id="WodsEw-OZz7wl92d_zAY-2" style="edgeStyle=orthogonalEdgeStyle;rounded=0;orthogonalLoop=1;jettySize=auto;html=1;exitX=0;exitY=0.5;exitDx=0;exitDy=0;entryX=0;entryY=0;entryDx=220;entryDy=75;entryPerimeter=0;curved=1;dashed=1;strokeWidth=1;" edge="1" parent="1" source="cECSEEEWD8I-1CxaCeh5-3" target="cECSEEEWD8I-1CxaCeh5-10">
          <mxGeometry relative="1" as="geometry" />
        </mxCell>
        <mxCell id="cECSEEEWD8I-1CxaCeh5-3" value="myid = 1" style="aspect=fixed;perimeter=ellipsePerimeter;html=1;align=center;shadow=0;dashed=0;spacingTop=3;image;image=img/lib/active_directory/generic_server.svg;strokeWidth=2;fillColor=#FF99CC;" parent="1" vertex="1">
          <mxGeometry x="309" y="240" width="28.000000000000004" height="50" as="geometry" />
        </mxCell>
        <mxCell id="cECSEEEWD8I-1CxaCeh5-7" style="edgeStyle=orthogonalEdgeStyle;curved=1;rounded=0;orthogonalLoop=1;jettySize=auto;html=1;exitX=0.5;exitY=1;exitDx=0;exitDy=0;entryX=0.5;entryY=1;entryDx=0;entryDy=0;strokeWidth=1;" parent="1" source="cECSEEEWD8I-1CxaCeh5-4" target="cECSEEEWD8I-1CxaCeh5-3" edge="1">
          <mxGeometry relative="1" as="geometry">
            <Array as="points">
              <mxPoint x="493" y="340" />
              <mxPoint x="323" y="340" />
            </Array>
          </mxGeometry>
        </mxCell>
        <mxCell id="cECSEEEWD8I-1CxaCeh5-9" value="（2,0）" style="edgeLabel;html=1;align=center;verticalAlign=middle;resizable=0;points=[];" parent="cECSEEEWD8I-1CxaCeh5-7" vertex="1" connectable="0">
          <mxGeometry x="0.0861" y="-2" relative="1" as="geometry">
            <mxPoint as="offset" />
          </mxGeometry>
        </mxCell>
        <mxCell id="WodsEw-OZz7wl92d_zAY-3" style="edgeStyle=orthogonalEdgeStyle;curved=1;rounded=0;orthogonalLoop=1;jettySize=auto;html=1;exitX=1;exitY=0.5;exitDx=0;exitDy=0;entryX=0;entryY=0.5;entryDx=0;entryDy=0;entryPerimeter=0;dashed=1;strokeWidth=1;" edge="1" parent="1" source="cECSEEEWD8I-1CxaCeh5-4" target="WodsEw-OZz7wl92d_zAY-1">
          <mxGeometry relative="1" as="geometry" />
        </mxCell>
        <mxCell id="cECSEEEWD8I-1CxaCeh5-4" value="myid = 2" style="aspect=fixed;perimeter=ellipsePerimeter;html=1;align=center;shadow=0;dashed=0;spacingTop=3;image;image=img/lib/active_directory/generic_server.svg;strokeWidth=2;fillColor=#FF99CC;" parent="1" vertex="1">
          <mxGeometry x="479" y="240" width="28.000000000000004" height="50" as="geometry" />
        </mxCell>
        <mxCell id="cECSEEEWD8I-1CxaCeh5-10" value="myid = 1的机器，投出去(1,0)，收到的票是（2,0）；将收到的票和自己投出去的票对比，优先选择ZXID大的为leader，ZXID大的机器包含的数据是最新的，如果ZXID一样，默认选择myid大的为leader，推荐（2,0）成为leader&lt;br&gt;" style="shape=note;strokeWidth=2;fontSize=14;size=20;whiteSpace=wrap;html=1;fillColor=#fff2cc;strokeColor=#d6b656;fontColor=#666600;rounded=0;verticalAlign=top;align=left;" parent="1" vertex="1">
          <mxGeometry x="20" y="110" width="220" height="130" as="geometry" />
        </mxCell>
        <mxCell id="WodsEw-OZz7wl92d_zAY-1" value="myid = 2的机器投出去的是（2,0），收到的票是（1,0），还是推荐（2,0）成为leader" style="shape=note;strokeWidth=2;fontSize=14;size=20;whiteSpace=wrap;html=1;fillColor=#fff2cc;strokeColor=#d6b656;fontColor=#666600;rounded=0;verticalAlign=top;align=left;" vertex="1" parent="1">
          <mxGeometry x="660" y="140" width="270" height="110" as="geometry" />
        </mxCell>
        <mxCell id="WodsEw-OZz7wl92d_zAY-4" value="&lt;b&gt;&lt;font style=&quot;font-size: 15px&quot;&gt;第二轮投票&lt;br&gt;（2,0）选票胜&lt;br&gt;&lt;/font&gt;&lt;/b&gt;" style="rounded=0;whiteSpace=wrap;html=1;strokeWidth=2;fillColor=#FF99CC;verticalAlign=top;" vertex="1" parent="1">
          <mxGeometry x="259" y="510" width="310" height="240" as="geometry" />
        </mxCell>
        <mxCell id="WodsEw-OZz7wl92d_zAY-5" style="edgeStyle=orthogonalEdgeStyle;rounded=0;orthogonalLoop=1;jettySize=auto;html=1;exitX=0.5;exitY=0;exitDx=0;exitDy=0;entryX=0.5;entryY=0;entryDx=0;entryDy=0;curved=1;strokeWidth=1;" edge="1" parent="1" source="WodsEw-OZz7wl92d_zAY-7" target="WodsEw-OZz7wl92d_zAY-10">
          <mxGeometry relative="1" as="geometry">
            <Array as="points">
              <mxPoint x="323" y="580" />
              <mxPoint x="493" y="580" />
            </Array>
          </mxGeometry>
        </mxCell>
        <mxCell id="WodsEw-OZz7wl92d_zAY-6" value="（2,0）" style="edgeLabel;html=1;align=center;verticalAlign=middle;resizable=0;points=[];" vertex="1" connectable="0" parent="WodsEw-OZz7wl92d_zAY-5">
          <mxGeometry x="-0.141" y="-1" relative="1" as="geometry">
            <mxPoint as="offset" />
          </mxGeometry>
        </mxCell>
        <mxCell id="WodsEw-OZz7wl92d_zAY-12" style="edgeStyle=orthogonalEdgeStyle;curved=1;rounded=0;orthogonalLoop=1;jettySize=auto;html=1;exitX=0;exitY=0.5;exitDx=0;exitDy=0;entryX=0;entryY=0;entryDx=210;entryDy=60;entryPerimeter=0;dashed=1;strokeWidth=1;" edge="1" parent="1" source="WodsEw-OZz7wl92d_zAY-7" target="WodsEw-OZz7wl92d_zAY-11">
          <mxGeometry relative="1" as="geometry" />
        </mxCell>
        <mxCell id="WodsEw-OZz7wl92d_zAY-7" value="myid = 1" style="aspect=fixed;perimeter=ellipsePerimeter;html=1;align=center;shadow=0;dashed=0;spacingTop=3;image;image=img/lib/active_directory/generic_server.svg;strokeWidth=2;fillColor=#FF99CC;" vertex="1" parent="1">
          <mxGeometry x="309" y="620" width="28.000000000000004" height="50" as="geometry" />
        </mxCell>
        <mxCell id="WodsEw-OZz7wl92d_zAY-8" style="edgeStyle=orthogonalEdgeStyle;curved=1;rounded=0;orthogonalLoop=1;jettySize=auto;html=1;exitX=0.5;exitY=1;exitDx=0;exitDy=0;entryX=0.5;entryY=1;entryDx=0;entryDy=0;strokeWidth=1;" edge="1" parent="1" source="WodsEw-OZz7wl92d_zAY-10" target="WodsEw-OZz7wl92d_zAY-7">
          <mxGeometry relative="1" as="geometry">
            <Array as="points">
              <mxPoint x="493" y="720" />
              <mxPoint x="323" y="720" />
            </Array>
          </mxGeometry>
        </mxCell>
        <mxCell id="WodsEw-OZz7wl92d_zAY-9" value="（2,0）" style="edgeLabel;html=1;align=center;verticalAlign=middle;resizable=0;points=[];" vertex="1" connectable="0" parent="WodsEw-OZz7wl92d_zAY-8">
          <mxGeometry x="0.0861" y="-2" relative="1" as="geometry">
            <mxPoint as="offset" />
          </mxGeometry>
        </mxCell>
        <mxCell id="WodsEw-OZz7wl92d_zAY-14" style="edgeStyle=orthogonalEdgeStyle;curved=1;rounded=0;orthogonalLoop=1;jettySize=auto;html=1;exitX=1;exitY=0.5;exitDx=0;exitDy=0;entryX=0;entryY=0.5;entryDx=0;entryDy=0;entryPerimeter=0;dashed=1;strokeWidth=1;" edge="1" parent="1" source="WodsEw-OZz7wl92d_zAY-10" target="WodsEw-OZz7wl92d_zAY-13">
          <mxGeometry relative="1" as="geometry" />
        </mxCell>
        <mxCell id="WodsEw-OZz7wl92d_zAY-10" value="myid = 2" style="aspect=fixed;perimeter=ellipsePerimeter;html=1;align=center;shadow=0;dashed=0;spacingTop=3;image;image=img/lib/active_directory/generic_server.svg;strokeWidth=2;fillColor=#FF99CC;" vertex="1" parent="1">
          <mxGeometry x="479" y="620" width="28.000000000000004" height="50" as="geometry" />
        </mxCell>
        <mxCell id="WodsEw-OZz7wl92d_zAY-11" value="myid = 1的机器投出去的是（2,0），收到的票是（2,0），投一台机器的票数已经超过集群的半数，此时选举就结束了，确定（2,0）的机器是leader" style="shape=note;strokeWidth=2;fontSize=14;size=20;whiteSpace=wrap;html=1;fillColor=#fff2cc;strokeColor=#d6b656;fontColor=#666600;rounded=0;verticalAlign=top;align=left;" vertex="1" parent="1">
          <mxGeometry x="20" y="550" width="210" height="100" as="geometry" />
        </mxCell>
        <mxCell id="WodsEw-OZz7wl92d_zAY-13" value="myid = 2的机器投出去的是（2,0），收到的选票也是（2,0），此时确定（2,0）成为leader" style="shape=note;strokeWidth=2;fontSize=14;size=20;whiteSpace=wrap;html=1;fillColor=#fff2cc;strokeColor=#d6b656;fontColor=#666600;rounded=0;verticalAlign=top;align=left;" vertex="1" parent="1">
          <mxGeometry x="660" y="560" width="270" height="120" as="geometry" />
        </mxCell>
      </root>
    </mxGraphModel>
  </diagram>
</mxfile>
